<svg height="496pt" viewBox="0 0 496.792 496" width="496pt" xmlns="http://www.w3.org/2000/svg"><path d="m312 16.394531v16c0 4.402344-3.601562 8-8 8h-64c-4.398438 0-8-3.597656-8-8v-16c0-4.398437 3.601562-8 8-8h64c4.398438 0 8 3.601563 8 8zm0 0" fill="#ccd1d9"/><path d="m248 40.394531h48v32h-48zm0 0" fill="#969faa"/><g fill="#fcd770"><path d="m344 152.394531v32c0 8.800781-7.199219 16-16 16h-112c-2.71875 0-5.359375-.71875-7.601562-1.917969-4.957032-2.71875-8.398438-8-8.398438-14.082031v-32c0-8.796875 7.199219-16 16-16h112c8.800781 0 16 7.203125 16 16zm0 0"/><path d="m344 88.394531v32c0 8.800781-7.199219 16-16 16h-112c-8.800781 0-16-7.199219-16-16v-32c0-8.796875 7.199219-16 16-16h112c8.800781 0 16 7.203125 16 16zm0 0"/><path d="m216 200.394531h120c4.960938 10 7.679688 20.882813 7.921875 32h-47.921875l3.039062 32h-99.039062v-30.078125c0-11.761718 2.71875-23.359375 8-33.921875l.398438-1.917969c2.242187 1.199219 4.882812 1.917969 7.601562 1.917969zm0 0"/></g><path d="m136 64.394531v16c0 4.402344-3.601562 8-8 8h-48c-4.398438 0-8-3.597656-8-8v-16c0-4.398437 3.601562-8 8-8h48c4.398438 0 8 3.601563 8 8zm0 0" fill="#969faa"/><path d="m168 232.394531v32h-128v-80l7.921875 6.320313c33.4375 26.882812 76 41.679687 120.078125 41.679687zm0 0" fill="#e6e9ed"/><path d="m168 181.277344v19.117187c-41.28125 0-81.199219-14.796875-112.558594-41.679687l-7.121094-6.078125c3.917969-6.402344 9.199219-12 15.679688-16.242188 14.960938-10 24-26.796875 24-44.878906v-3.121094h32v3.121094c0 9.039063 2.238281 17.761719 6.398438 25.441406 4.160156 7.757813 10.082031 14.480469 17.601562 19.4375 14.960938 10 24 26.800781 24 44.882813zm0 0" fill="#e6e9ed"/><path d="m168 200.394531v32c-44.078125 0-86.640625-14.796875-120.078125-41.679687l-7.921875-6.320313v-3.117187c0-9.042969 2.238281-17.761719 6.398438-25.441406.5625-1.121094 1.203124-2.160157 1.921874-3.199219l7.121094 6.078125c31.359375 26.882812 71.277344 41.679687 112.558594 41.679687zm0 0" fill="#69d6f4"/><path d="m302.800781 304.476562 14.160157 151.917969h-268.960938l-24-160h278zm0 0" fill="#f0d0b4"/><path d="m316.960938 456.394531 3.039062 32h-272v-32zm0 0" fill="#cf9e76"/><path d="m299.039062 264.394531 2.960938 32h-278c-8.800781 0-16-7.199219-16-16 0-4.398437 1.761719-8.398437 4.71875-11.277343 2.882812-2.960938 6.882812-4.722657 11.28125-4.722657zm0 0" fill="#cf9e76"/><path d="m272 344.394531v64c0 8.800781-7.199219 16-16 16h-128c-8.800781 0-16-7.199219-16-16v-64c0-8.796875 7.199219-16 16-16h128c8.800781 0 16 7.203125 16 16zm0 0" fill="#e6e9ed"/><path d="m343.921875 232.394531h144.078125l-7.519531 80.082031-.480469-.082031c-40 0-72-24-112-24s-64 16-64 16l-1.199219.082031-.800781-8.082031-2.960938-32-3.039062-32zm0 0" fill="#e6e9ed"/><path d="m480.480469 312.476562-16.480469 175.917969h-144l-3.039062-32-14.160157-151.917969 1.199219-.082031s24-16 64-16 72 24 112 24zm0 0" fill="#69d6f4"/><path d="m448 408.394531v32c0 4.402344-3.601562 8-8 8h-32c-4.398438 0-8-3.597656-8-8v-32c0-4.398437 3.601562-8 8-8h32c4.398438 0 8 3.601563 8 8zm0 0" fill="#e6e9ed"/><path d="m384 328.394531v32c0 4.402344-3.601562 8-8 8h-32c-4.398438 0-8-3.597656-8-8v-32c0-4.398437 3.601562-8 8-8h32c4.398438 0 8 3.601563 8 8zm0 0" fill="#e6e9ed"/><path d="m256 320.394531h-128c-13.230469 0-24 10.769531-24 24v64c0 13.234375 10.769531 24 24 24h128c13.230469 0 24-10.765625 24-24v-64c0-13.230469-10.769531-24-24-24zm8 88c0 4.417969-3.59375 8-8 8h-128c-4.40625 0-8-3.582031-8-8v-64c0-4.414062 3.59375-8 8-8h128c4.40625 0 8 3.585938 8 8zm0 0"/><path d="m136 352.394531h112v16h-112zm0 0"/><path d="m136 384.394531h48v16h-48zm0 0"/><path d="m200 384.394531h48v16h-48zm0 0"/><path d="m351.390625 224.394531c-.949219-7.972656-3.175781-15.765625-6.34375-23.152343 4.296875-4.335938 6.953125-10.277344 6.953125-16.847657v-32c0-6.167969-2.40625-11.742187-6.238281-16 3.839843-4.253906 6.238281-9.832031 6.238281-16v-32c0-13.230469-10.769531-24-24-24h-24v-16c8.824219 0 16-7.175781 16-16v-16c0-8.824219-7.175781-16-16-16h-64c-8.824219 0-16 7.175781-16 16v16c0 8.824219 7.175781 16 16 16v16h-24c-13.230469 0-24 10.769531-24 24v32c0 6.167969 2.40625 11.746094 6.238281 16-3.839843 4.257813-6.238281 9.832031-6.238281 16v32c0 6.570313 2.65625 12.511719 6.945312 16.847657-4.472656 10.425781-6.945312 21.714843-6.945312 33.042968v22.109375h-16v-75.160156c0-20.742187-10.304688-40-27.558594-51.503906-11.449218-7.628907-18.722656-19.871094-20.136718-33.375 8.679687-.152344 15.695312-7.238281 15.695312-15.960938v-16c0-8.824219-7.175781-16-16-16h-48c-8.824219 0-16 7.175781-16 16v16c0 8.722657 7.015625 15.808594 15.703125 15.96875-1.414063 13.503907-8.6875 25.746094-20.136719 33.375-17.261718 11.496094-27.566406 30.761719-27.566406 51.496094v75.160156h-8c-13.230469 0-24 10.769531-24 24 0 10.761719 7.160156 19.777344 16.9375 22.816407l23.0625 153.785156v39.398437h431.289062l25.503907-272zm121.847656 79.753907c-16.070312-1.136719-31.007812-6.113282-46.703125-11.335938-18.3125-6.105469-37.238281-12.417969-58.535156-12.417969-27.015625 0-47.128906 6.890625-58.34375 11.992188l-4.871094-51.992188h174.429688zm-418.351562 144.246093-21.597657-144h261.421876l13.503906 144zm185.113281-432h64l.007812 16h-64.007812zm16 32h32v16h-32zm-48 40c0-4.414062 3.59375-8 8-8h112c4.40625 0 8 3.585938 8 8v32c0 4.417969-3.59375 8-8 8h-24v16h24c4.40625 0 8 3.585938 8 8v32c0 4.417969-3.59375 8-8 8h-112c-4.40625 0-8-3.582031-8-8v-32c0-4.414062 3.59375-8 8-8h72v-16h-72c-4.40625 0-8-3.582031-8-8zm0 145.890625c0-8.960937 1.910156-17.890625 5.375-26.160156.871094.101562 1.730469.269531 2.625.269531h112c.894531 0 1.753906-.167969 2.625-.261719 2.183594 5.207032 3.71875 10.671876 4.550781 16.261719h-47.960937l3 32h-82.214844zm-157.128906-68.9375c30.648437 26.007813 69.097656 40.914063 109.128906 42.6875v16.023438c-39.335938-1.671875-77.113281-15.460938-107.089844-39.550782l-4.871094-3.917968c.074219-5.28125 1.050782-10.417969 2.832032-15.242188zm29.128906-100.953125h48l.007812 16h-48.007812zm-11.558594 78.65625c15.894532-10.589843 25.789063-27.796875 27.261719-46.65625h16.601563c1.472656 18.859375 11.359374 36.066407 27.261718 46.65625 12.800782 8.527344 20.441406 22.808594 20.441406 38.183594v10.800781c-36.496093-1.773437-71.527343-15.496094-99.382812-39.359375l-1.511719-1.296875c2.6875-3.136718 5.78125-5.96875 9.328125-8.328125zm-20.441406 57.679688c31.953125 23.96875 71.183594 37.730469 112 39.328125v16.335937h-112zm-24 71.664062h267.710938l1.503906 16h-269.214844c-4.40625 0-8-3.582031-8-8 0-4.414062 3.59375-8 8-8zm32 208v-16h253.710938l1.503906 16zm400.710938 0h-129.421876l-16.03125-170.972656c7.039063-3.808594 27.109376-13.027344 56.742188-13.027344 18.703125 0 35.59375 5.632813 53.472656 11.585938 15.902344 5.304687 32.289063 10.75 50.28125 12.085937zm0 0"/><path d="m440 392.394531h-32c-8.824219 0-16 7.175781-16 16v32c0 8.824219 7.175781 16 16 16h32c8.824219 0 16-7.175781 16-16v-32c0-8.824219-7.175781-16-16-16zm-32 48v-32h32l.007812 32zm0 0"/><path d="m392 328.394531c0-8.824219-7.175781-16-16-16h-32c-8.824219 0-16 7.175781-16 16v32c0 8.824219 7.175781 16 16 16h32c8.824219 0 16-7.175781 16-16zm-48 32v-32h32l.007812 32zm0 0"/><path d="m432 352.394531h16v16h-16zm0 0"/><path d="m344 424.394531h16v16h-16zm0 0"/></svg>