<?xml version="1.0" encoding="iso-8859-1"?>
<!-- Generator: Adobe Illustrator 19.0.0, SVG Export Plug-In . SVG Version: 6.00 Build 0)  -->
<svg version="1.1" id="Capa_1" xmlns="http://www.w3.org/2000/svg" xmlns:xlink="http://www.w3.org/1999/xlink" x="0px" y="0px"
	 viewBox="0 0 512 512" style="enable-background:new 0 0 512 512;" xml:space="preserve">
<path style="fill:#4398D1;" d="M321.085,4.339l-52.068,69.424l52.068,69.424H512V4.339H321.085z M329.763,91.119
	c-9.589,0-17.356-7.767-17.356-17.356s7.767-17.356,17.356-17.356c9.589,0,17.356,7.767,17.356,17.356
	S339.352,91.119,329.763,91.119z"/>
<polygon style="fill:#3F8FC4;" points="512,35.597 357.176,143.186 512,143.186 "/>
<rect x="138.847" y="212.61" style="fill:#F9B44D;" width="242.983" height="216.949"/>
<rect x="234.305" y="212.61" style="fill:#F77219;" width="52.068" height="52.068"/>
<path style="fill:#87CED9;" d="M435.946,56.407h32.664V39.051h-17.356v-8.678h-17.356v8.886
	c-10.622,1.085-18.354,10.578-17.269,21.2c0.677,6.604,4.695,12.401,10.639,15.351l22.84,11.42c1.015,0.495,1.441,1.727,0.937,2.742
	c-0.338,0.694-1.041,1.137-1.805,1.145h-32.699v17.356h17.356v8.678h17.356v-8.886c10.622-1.085,18.354-10.578,17.269-21.2
	c-0.677-6.604-4.695-12.401-10.639-15.351l-22.84-11.42c-1.015-0.495-1.441-1.727-0.937-2.742c0.338-0.694,1.041-1.137,1.805-1.145
	H435.946z"/>
<path style="fill:#4398D1;" d="M420.881,264.678h-39.051v-17.356h39.051c16.775,0,30.373-13.598,30.373-30.373
	s-13.598-30.373-30.373-30.373H234.305c-33.549,0-60.746-27.197-60.746-60.746s27.197-60.746,60.746-60.746h78.102v17.356h-78.102
	c-23.96,0-43.39,19.43-43.39,43.39s19.43,43.39,43.39,43.39h186.576c26.364,0,47.729,21.365,47.729,47.729
	S447.245,264.678,420.881,264.678z"/>
<polygon style="fill:#F7AA36;" points="138.847,425.22 138.847,429.559 381.831,429.559 381.831,242.983 "/>
<path style="fill:#FEC9A3;" d="M338.441,420.881h-17.356c16.775,0,30.373-13.598,30.373-30.373l0,0l0,0
	c0-16.775-13.598-30.373-30.373-30.373h-86.78c-37.636-21.513-83.855-21.513-121.492,0l0,0v147.525h225.627l157.418-94.451
	C505.873,407.205,512,396.383,512,384.703l0,0c0-18.363-14.883-33.245-33.245-33.245l0,0h-1.831
	c-5.45,0.009-10.813,1.345-15.62,3.914L338.441,420.881z"/>
<rect y="360.136" style="fill:#4398D1;" width="112.814" height="147.525"/>
<path style="fill:#F5B789;" d="M338.441,429.559h-95.458c-4.79,0-8.678-3.888-8.678-8.678s3.888-8.678,8.678-8.678h95.458
	c4.79,0,8.678,3.888,8.678,8.678S343.231,429.559,338.441,429.559z"/>
<rect y="420.881" style="fill:#3F8FC4;" width="112.814" height="86.78"/>
<circle style="fill:#18588C;" cx="60.746" cy="455.593" r="17.356"/>
<g>
</g>
<g>
</g>
<g>
</g>
<g>
</g>
<g>
</g>
<g>
</g>
<g>
</g>
<g>
</g>
<g>
</g>
<g>
</g>
<g>
</g>
<g>
</g>
<g>
</g>
<g>
</g>
<g>
</g>
</svg>
