<svg id="Capa_1" enable-background="new 0 0 512 512" height="512" viewBox="0 0 512 512" width="512" xmlns="http://www.w3.org/2000/svg"><g><path d="m301 301v196c0 8.284 6.716 15 15 15h45l15-30 15 30h45c8.284 0 15-6.716 15-15v-196z" fill="#4a4080"/><path d="m391 512v-136c0-8.286-6.716-15-15-15s-15 6.714-15 15v136z" fill="#321f59"/><path d="m61 301v196c0 8.284 6.716 15 15 15h45l15-30 15 30h45c8.284 0 15-6.716 15-15v-196z" fill="#6d4d8c"/><path d="m151 512v-136c0-8.286-6.716-15-15-15s-15 6.714-15 15v136z" fill="#4a4080"/><path d="m406 121h-300c-57.9 0-106 47.1-106 105v75c0 8.399 6.599 15 15 15h46l15-30 15 30h330l15-30 15 30h46c8.401 0 15-6.601 15-15v-75c0-57.9-48.1-105-106-105z" fill="#7ed8f6"/><path d="m406 121h-150v195h165l15-30 15 30h46c8.401 0 15-6.601 15-15v-75c0-57.9-48.1-105-106-105z" fill="#6aa9ff"/><g><path d="m136 121c-33.091 0-60-27.909-60-61s26.909-60 60-60 60 26.909 60 60-26.909 61-60 61z" fill="#ffd5cc"/></g><g><path d="m376 121c-33.091 0-60-27.909-60-61s26.909-60 60-60 60 26.909 60 60-26.909 61-60 61z" fill="#ffbfab"/></g><path d="m316 151c-29.077 0-48.428 15.278-60 29.18-11.572-13.902-30.923-29.18-60-29.18-42.056 0-75 35.479-75 80.757 0 48.662 37.441 80.566 94.116 128.862 9.741 8.306 20.112 17.139 31.011 26.675 2.827 2.476 6.343 3.706 9.873 3.706s7.046-1.23 9.873-3.706c10.898-9.536 21.27-18.369 31.011-26.675 56.675-48.296 94.116-80.2 94.116-128.862 0-45.278-32.944-80.757-75-80.757z" fill="#ff6c6c"/><path d="m296.884 360.619c56.675-48.296 94.116-80.2 94.116-128.862 0-45.278-32.944-80.757-75-80.757-29.077 0-48.428 15.278-60 29.18v210.82c3.53 0 7.046-1.23 9.873-3.706 10.898-9.536 21.27-18.369 31.011-26.675z" fill="#e63950"/><path d="m76 211c-8.284 0-15 6.714-15 15v90h30v-90c0-8.286-6.716-15-15-15z" fill="#6aa9ff"/><path d="m436 211c-8.284 0-15 6.714-15 15v90h30v-90c0-8.286-6.716-15-15-15z" fill="#4895ff"/></g></svg>