<?xml version="1.0" encoding="iso-8859-1"?>
<!-- Generator: Adobe Illustrator 21.0.0, SVG Export Plug-In . SVG Version: 6.00 Build 0)  -->
<svg version="1.1" id="Capa_1" xmlns="http://www.w3.org/2000/svg" xmlns:xlink="http://www.w3.org/1999/xlink" x="0px" y="0px"
	 viewBox="0 0 609.677 609.677" style="enable-background:new 0 0 609.677 609.677;" xml:space="preserve">
<g>
	<g>
		<g id="filled_outline_18_">
			<path style="fill:#4398D1;" d="M476.351,599.516H133.326c-11.899-0.01-21.552-9.653-21.552-21.552l0,0
				c0-5.721,2.266-11.198,6.31-15.242l34.335-34.335v-99.784c0.02-65.784,47.057-122.149,111.774-133.926h81.29
				c64.717,11.777,111.754,68.142,111.774,133.926v99.784l34.335,34.335c4.044,4.044,6.31,9.521,6.31,15.242l0,0
				C497.893,589.863,488.25,599.506,476.351,599.516z"/>
			<path style="fill:#3E8CC7;" d="M491.593,562.722l-34.335-34.335v-99.784c0.02-31.754-11.096-62.512-31.398-86.93
				c-61.354,149.777-186.693,222.918-280.635,257.843h331.126c11.899,0,21.552-9.643,21.552-21.552
				C497.903,572.253,495.637,566.766,491.593,562.722z"/>
			<polygon style="fill:#4398D1;" points="345.484,294.677 264.194,294.677 233.71,233.71 375.968,233.71 			"/>
			<rect x="294.677" y="62.238" style="fill:#6B962A;" width="20.323" height="171.472"/>
			<path style="fill:#88B337;" d="M304.839,71.129h-10.161c-33.675,0-60.968-27.293-60.968-60.968h10.161
				C277.545,10.161,304.839,37.455,304.839,71.129z"/>
			<path style="fill:#88B337;" d="M203.226,101.613h20.323c44.893,0,81.29,36.398,81.29,81.29l0,0l0,0h-20.323
				C239.624,182.903,203.226,146.505,203.226,101.613L203.226,101.613L203.226,101.613z"/>
			<path style="fill:#6B962A;" d="M375.968,10.161h-10.161c-33.674,0-60.968,27.293-60.968,60.968H315
				C348.674,71.129,375.968,43.836,375.968,10.161z"/>
			<path style="fill:#6B962A;" d="M325.161,182.903h-20.323l0,0l0,0c0-44.893,36.398-81.29,81.29-81.29h20.323l0,0l0,0
				C406.452,146.505,370.054,182.903,325.161,182.903z"/>
			<path style="fill:#FDB62F;" d="M162.581,91.452L162.581,91.452c-3.475-20.841-19.804-37.17-40.645-40.645l0,0
				c20.841-3.475,37.17-19.804,40.645-40.645l0,0c3.475,20.841,19.804,37.17,40.645,40.645l0,0
				C182.385,54.282,166.056,70.611,162.581,91.452z"/>
			<path style="fill:#DADDDF;" d="M406.452,203.226v-20.323c16.837,0,30.484-13.647,30.484-30.484h20.323
				C457.228,180.465,434.497,203.195,406.452,203.226z"/>
			<path style="fill:#FFFFFF;" d="M320.081,436.935h-30.484c-8.414,0-15.242-6.828-15.242-15.242s6.828-15.242,15.242-15.242l0,0
				h55.887v-20.323H315v-20.323h-20.323v20.323h-5.081c-19.642,0-35.565,15.923-35.565,35.565s15.923,35.565,35.565,35.565h30.484
				c8.414,0,15.242,6.828,15.242,15.242s-6.828,15.242-15.242,15.242h-55.887v20.323h30.484v20.323H315v-20.323h5.081
				c19.642,0,35.565-15.923,35.565-35.565S339.722,436.935,320.081,436.935z"/>
			<path d="M101.613,577.964c0.02,17.508,14.205,31.693,31.713,31.713h343.025c17.518,0,31.713-14.195,31.713-31.713
				c0-8.414-3.343-16.482-9.287-22.426l-31.358-31.358v-95.567c0.03-65.703-43.775-123.348-107.08-140.927l24.773-49.435
				c2.51-5.02,0.478-11.127-4.552-13.636c-1.423-0.711-2.998-1.077-4.593-1.067H315v-30.484h10.161
				c50.481-0.061,91.391-40.97,91.452-91.452c0-5.609-4.552-10.161-10.161-10.161h-20.323c-27.649,0.01-53.804,12.539-71.129,34.091
				V81.29c39.263-0.051,71.078-31.866,71.129-71.129C386.129,4.552,381.577,0,375.968,0h-10.161
				c-25.007,0.041-48.154,13.21-60.968,34.68C292.025,13.21,268.878,0.041,243.871,0H233.71c-5.609,0-10.161,4.552-10.161,10.161
				c0.051,39.263,31.866,71.078,71.129,71.129v44.252c-17.325-21.552-43.48-34.081-71.129-34.091h-20.323
				c-5.609,0-10.161,4.552-10.161,10.161c0.061,50.481,40.97,91.391,91.452,91.452h10.161v30.484H233.71
				c-5.609,0-10.161,4.542-10.161,10.161c0,1.575,0.366,3.14,1.067,4.542l24.722,49.435
				c-63.305,17.579-107.11,75.224-107.08,140.927v95.567L110.9,555.538C104.976,561.503,101.633,569.561,101.613,577.964z
				 M364.79,20.323c-4.786,23.269-25.027,40.137-48.774,40.645C320.802,37.698,341.043,20.831,364.79,20.323z M244.887,20.323
				c23.747,0.508,43.988,17.376,48.774,40.645C269.914,60.46,249.673,43.592,244.887,20.323z M386.129,111.774h9.44
				c-5.101,34.975-35.067,60.927-70.408,60.968h-9.44C320.812,137.767,350.788,111.815,386.129,111.774z M284.516,172.742
				c-35.341-0.041-65.307-25.993-70.408-60.968h9.44c35.341,0.041,65.307,25.993,70.408,60.968H284.516z M359.527,243.871
				l-20.323,40.645h-68.731l-20.323-40.645H359.527z M125.268,569.906l34.335-34.335c1.9-1.9,2.977-4.491,2.977-7.184v-99.774
				c-0.03-60.551,43.053-112.536,102.548-123.775h79.421c59.494,11.238,102.568,63.224,102.548,123.775v99.774
				c0,2.693,1.067,5.284,2.977,7.184l34.335,34.335c4.451,4.451,4.451,11.655,0.01,16.106c-2.144,2.144-5.04,3.343-8.068,3.343
				H133.326c-6.29,0-11.391-5.091-11.401-11.381C121.925,574.946,123.124,572.04,125.268,569.906z"/>
			<path d="M289.597,457.258h30.484c8.414,0,15.242,6.828,15.242,15.242s-6.828,15.242-15.242,15.242h-55.887v20.323h30.484v20.323
				H315v-20.323h5.081c19.642,0,35.565-15.923,35.565-35.565s-15.923-35.565-35.565-35.565h-30.484
				c-8.414,0-15.242-6.828-15.242-15.242s6.828-15.242,15.242-15.242l0,0h55.887v-20.323H315v-20.323h-20.323v20.323h-5.081
				c-19.642,0-35.565,15.923-35.565,35.565S269.955,457.258,289.597,457.258z"/>
			<path d="M111.774,50.806c0,4.969,3.597,9.206,8.495,10.019c16.553,2.764,29.529,15.74,32.293,32.293
				c0.935,5.538,6.178,9.257,11.716,8.322c4.268-0.721,7.601-4.065,8.322-8.322c2.764-16.553,15.74-29.529,32.293-32.293
				c5.538-0.935,9.257-6.178,8.322-11.716c-0.721-4.268-4.065-7.601-8.322-8.322c-16.553-2.764-29.529-15.74-32.293-32.293
				c-0.935-5.538-6.178-9.257-11.716-8.322c-4.268,0.721-7.601,4.065-8.322,8.322c-2.764,16.553-15.74,29.529-32.293,32.293
				C115.371,41.6,111.774,45.838,111.774,50.806z M162.581,36.296c3.963,5.64,8.871,10.547,14.51,14.51
				c-5.64,3.963-10.547,8.871-14.51,14.51c-3.963-5.64-8.871-10.547-14.51-14.51C153.71,46.844,158.618,41.936,162.581,36.296z"/>
			<path d="M406.452,182.903v20.323c28.045-0.03,50.776-22.761,50.806-50.806h-20.323
				C436.935,169.257,423.289,182.903,406.452,182.903z"/>
		</g>
	</g>
</g>
<g>
</g>
<g>
</g>
<g>
</g>
<g>
</g>
<g>
</g>
<g>
</g>
<g>
</g>
<g>
</g>
<g>
</g>
<g>
</g>
<g>
</g>
<g>
</g>
<g>
</g>
<g>
</g>
<g>
</g>
</svg>
